<?xml version="1.0" standalone="no"?>
<!DOCTYPE svg PUBLIC "-//W3C//DTD SVG 20010904//EN"
 "http://www.w3.org/TR/2001/REC-SVG-20010904/DTD/svg10.dtd">
<svg version="1.0" xmlns="http://www.w3.org/2000/svg"
 width="512.000000pt" height="512.000000pt" viewBox="0 0 512.000000 512.000000"
 preserveAspectRatio="xMidYMid meet">

<g transform="translate(0.000000,512.000000) scale(0.100000,-0.100000)"
fill="#000000" stroke="none">
<path d="M4620 5104 c-235 -63 -358 -327 -256 -549 l27 -59 -595 -595 -594
-594 -64 29 c-56 26 -74 29 -163 29 -89 0 -107 -3 -163 -29 l-64 -29 -261 261
-261 261 21 48 c38 84 46 123 41 202 -7 127 -69 237 -171 304 -72 47 -138 67
-222 67 -213 0 -381 -158 -393 -371 -5 -79 3 -118 41 -202 l21 -48 -470 -470
-471 -471 -49 25 c-234 121 -516 -25 -566 -293 -48 -255 196 -496 454 -450
258 47 402 319 294 555 l-27 59 472 472 472 472 47 -25 c104 -54 247 -54 351
1 l46 24 264 -264 263 -263 -18 -38 c-127 -263 35 -556 320 -580 162 -14 317
77 388 227 28 59 31 74 31 165 0 89 -3 107 -29 163 l-29 64 594 594 595 595
57 -27 c241 -110 515 36 560 300 27 161 -62 335 -210 409 -92 46 -187 57 -283
31z m181 -146 c94 -28 169 -134 169 -239 0 -221 -274 -329 -426 -167 -51 54
-68 96 -69 168 0 174 158 289 326 238z m-2805 -673 c156 -65 195 -282 73 -404
-48 -48 -103 -71 -174 -71 -238 0 -339 301 -150 446 68 51 169 63 251 29z
m1091 -1087 c123 -57 173 -216 107 -338 -47 -86 -122 -130 -221 -130 -147 1
-251 115 -241 264 11 177 191 281 355 204z m-2616 -400 c151 -51 220 -220 144
-356 -65 -119 -213 -165 -331 -104 -145 75 -179 275 -66 396 60 64 171 92 253
64z"/>
<path d="M4220 1805 l0 -1805 450 0 450 0 0 1805 0 1805 -450 0 -450 0 0
-1805z m750 0 l0 -1655 -305 0 -305 0 0 1655 0 1655 305 0 305 0 0 -1655z"/>
<path d="M1410 1100 l0 -1100 450 0 450 0 0 1100 0 1100 -450 0 -450 0 0
-1100z m750 0 l0 -950 -305 0 -305 0 0 950 0 950 305 0 305 0 0 -950z"/>
<path d="M2810 1045 l0 -1045 450 0 450 0 0 1045 0 1045 -450 0 -450 0 0
-1045z m758 3 l2 -898 -305 0 -305 0 0 900 0 900 303 -2 302 -3 3 -897z"/>
<path d="M0 830 l0 -830 450 0 450 0 0 830 0 830 -450 0 -450 0 0 -830z m760
0 l0 -680 -305 0 -305 0 0 680 0 680 305 0 305 0 0 -680z"/>
</g>
</svg>
