<?xml version="1.0" standalone="no"?>
<!DOCTYPE svg PUBLIC "-//W3C//DTD SVG 20010904//EN"
 "http://www.w3.org/TR/2001/REC-SVG-20010904/DTD/svg10.dtd">
<svg version="1.0" xmlns="http://www.w3.org/2000/svg"
 width="512.000000pt" height="512.000000pt" viewBox="0 0 512.000000 512.000000"
 preserveAspectRatio="xMidYMid meet">

<g transform="translate(0.000000,512.000000) scale(0.100000,-0.100000)"
fill="#000000" stroke="none">
<path d="M2445 5009 c-499 -37 -929 -332 -1153 -791 -158 -324 -184 -702 -72
-1039 21 -64 56 -152 78 -195 22 -44 176 -297 341 -563 166 -267 298 -488 294
-492 -4 -3 -388 -150 -853 -324 -1141 -429 -1048 -391 -1065 -425 -19 -37 -19
-63 0 -100 18 -35 -99 12 1367 -539 659 -248 1161 -431 1179 -431 32 0 1132
407 1175 435 11 7 27 27 34 45 26 63 -24 136 -93 133 -17 -1 -276 -94 -574
-207 l-541 -204 -1081 406 c-595 223 -1081 409 -1081 412 0 7 1628 620 1646
620 6 0 108 -157 227 -348 217 -348 235 -372 287 -372 52 0 70 24 287 372 119
191 221 348 227 348 18 1 1646 -613 1646 -620 0 -4 -70 -33 -155 -65 -172 -64
-195 -81 -195 -147 0 -28 7 -46 24 -63 47 -47 59 -45 340 60 347 129 354 133
371 166 27 51 11 110 -34 134 -15 7 -442 169 -951 360 -509 191 -929 351 -933
355 -4 3 128 224 294 491 165 266 319 519 341 563 22 43 57 131 78 195 139
417 66 879 -197 1249 -289 405 -751 619 -1258 581z m335 -215 c103 -18 237
-62 322 -105 346 -174 595 -522 654 -909 37 -249 -6 -500 -125 -725 -66 -126
-1059 -1720 -1071 -1720 -12 0 -1029 1633 -1081 1738 -194 385 -165 841 78
1206 267 401 740 600 1223 515z"/>
<path d="M2410 4345 c-288 -65 -510 -275 -581 -554 -27 -104 -27 -268 0 -372
67 -261 277 -473 541 -545 46 -13 101 -18 190 -18 141 0 211 15 325 69 153 73
274 194 350 350 57 116 76 200 76 333 -1 176 -48 317 -157 461 -90 119 -249
225 -399 266 -85 23 -264 28 -345 10z m256 -196 c194 -35 369 -198 428 -398
14 -48 24 -241 12 -241 -2 0 -54 33 -115 74 -249 167 -549 274 -818 293 -64 5
-83 9 -83 21 0 8 35 49 78 92 141 141 307 194 498 159z m-486 -474 c160 -15
342 -67 506 -145 98 -47 246 -141 312 -199 l33 -29 -58 -62 c-70 -77 -151
-131 -241 -162 -95 -32 -249 -32 -344 0 -175 60 -311 205 -362 383 -15 53 -19
98 -17 187 l1 43 53 -5 c28 -3 81 -8 117 -11z"/>
<path d="M4005 846 c-34 -34 -41 -71 -21 -113 19 -39 72 -67 111 -57 38 9 75
59 75 101 0 80 -109 125 -165 69z"/>
</g>
</svg>
