<svg id="Capa_1" enable-background="new 0 0 512 512" height="512" viewBox="0 0 512 512" width="512" xmlns="http://www.w3.org/2000/svg"><g><circle cx="256" cy="256" fill="#f6d76f" r="256"/><path d="m346.453 116.823-56-56.823-45.938 104.838-24.388 6.565-42.512-42.512-84.57 12.878 78.358 78.358-6.565 24.388-104.838 45.938 56.823 56 24.946 72.502 92.081 92.081c7.302.626 14.686.964 22.15.964 141.385 0 256-114.615 256-256 0-7.464-.338-14.848-.964-22.15l-140.805-140.805z" fill="#f9bb69"/><g><path d="m388.428 277.575 12.878 12.878h50.694v-68.906h-50.694l-12.878 12.878c-6.507 6.507-15.159 10.091-24.362 10.091h-80.34l56.809-56.809c6.507-6.507 15.159-10.091 24.362-10.091h18.212l35.846-35.846-48.724-48.724-35.846 35.846v18.212c0 9.202-3.584 17.854-10.091 24.361l-56.809 56.809v-80.34c0-9.202 3.584-17.855 10.091-24.362l12.878-12.878v-50.694h-34.454l-7.656 11.484v369.031l7.656 11.485h34.453v-50.694l-12.878-12.878c-6.507-6.507-10.091-15.159-10.091-24.362v-80.34l56.809 56.809c6.507 6.507 10.091 15.159 10.091 24.362v18.212l35.846 35.846 48.724-48.724-35.846-35.846h-18.212c-9.202 0-17.854-3.584-24.362-10.091l-56.809-56.809h80.34c9.203-.001 17.856 3.583 24.363 10.09z" fill="#3d92a0"/><path d="m221.547 60v50.694l12.878 12.878c6.507 6.507 10.091 15.159 10.091 24.362v80.34l-56.809-56.809c-6.507-6.507-10.091-15.159-10.091-24.361v-18.212l-35.846-35.846-48.724 48.724 35.846 35.846h18.212c9.202 0 17.854 3.584 24.362 10.091l56.809 56.809h-80.34c-9.202 0-17.855-3.584-24.362-10.091l-12.878-12.878h-50.695v68.906h50.694l12.878-12.878c6.507-6.507 15.159-10.091 24.362-10.091h80.34l-56.809 56.809c-6.507 6.507-15.159 10.091-24.362 10.091h-18.212l-35.846 35.846 48.724 48.724 35.846-35.846v-18.212c0-9.202 3.584-17.854 10.091-24.362l56.809-56.809v80.34c0 9.202-3.584 17.855-10.091 24.362l-12.878 12.878v50.695h34.454v-392z" fill="#46a99a"/><path d="m256 164.125-45.938 91.875 45.938 91.875c50.741 0 91.875-41.134 91.875-91.875s-41.134-91.875-91.875-91.875z" fill="#337ca5"/><path d="m164.125 256c0 50.741 41.134 91.875 91.875 91.875v-183.75c-50.741 0-91.875 41.134-91.875 91.875z" fill="#3d92a0"/><path d="m256 210.062-22.969 45.938 22.969 45.938c25.371 0 45.938-20.567 45.938-45.938s-20.567-45.938-45.938-45.938z" fill="#3d92a0"/><path d="m210.062 256c0 25.371 20.567 45.938 45.938 45.938v-91.875c-25.37-.001-45.938 20.567-45.938 45.937z" fill="#46a99a"/></g></g></svg>