<?xml version="1.0" standalone="no"?>
<!DOCTYPE svg PUBLIC "-//W3C//DTD SVG 20010904//EN"
 "http://www.w3.org/TR/2001/REC-SVG-20010904/DTD/svg10.dtd">
<svg version="1.0" xmlns="http://www.w3.org/2000/svg"
 width="512.000000pt" height="512.000000pt" viewBox="0 0 512.000000 512.000000"
 preserveAspectRatio="xMidYMid meet">

<g transform="translate(0.000000,512.000000) scale(0.100000,-0.100000)"
fill="#000000" stroke="none">
<path d="M913 3614 c-29 -15 -63 -65 -63 -94 0 -7 7 -27 16 -45 32 -69 -50
-65 1298 -65 1021 0 1216 -2 1216 -14 0 -7 -30 -141 -66 -297 -36 -156 -142
-619 -235 -1029 -93 -410 -171 -755 -174 -767 l-5 -23 -284 0 -284 0 -6 34
c-12 66 -74 171 -136 233 -105 105 -232 157 -380 156 -97 0 -149 -12 -236 -55
-121 -59 -221 -175 -265 -305 l-21 -63 -174 0 c-199 0 -225 -7 -250 -67 -19
-43 -5 -93 33 -123 24 -18 40 -20 209 -20 l183 0 15 -53 c52 -178 225 -331
414 -368 172 -33 376 37 491 167 43 49 99 149 116 208 l12 41 650 2 649 3 18
-60 c66 -221 303 -383 536 -367 219 15 416 166 476 367 l18 60 97 0 c112 0
141 10 163 54 9 17 52 229 97 471 70 382 80 449 75 510 -36 410 -319 744 -724
852 -95 26 -105 27 -490 31 l-394 4 7 26 c47 188 114 509 109 527 -3 12 -19
36 -35 51 l-30 29 -1307 2 c-1172 2 -1310 1 -1339 -13z m3410 -860 c93 -20
236 -90 312 -151 142 -116 238 -282 266 -465 11 -69 9 -84 -62 -465 l-74 -393
-41 0 c-39 0 -41 1 -54 43 -49 166 -186 306 -349 358 -91 29 -231 29 -322 0
-163 -52 -300 -192 -349 -358 l-13 -43 -258 0 -257 0 9 38 c146 646 319 1405
324 1425 l7 27 395 0 c323 0 407 -3 466 -16z m-2368 -1296 c60 -31 114 -86
146 -148 20 -37 24 -60 24 -135 0 -75 -4 -98 -24 -139 -76 -154 -261 -224
-411 -155 -79 37 -125 81 -161 155 -84 170 -3 370 179 439 60 23 185 14 247
-17z m2343 3 c65 -33 118 -87 149 -149 24 -48 28 -69 28 -137 -1 -105 -27
-167 -101 -234 -125 -114 -303 -114 -428 0 -154 140 -136 380 38 497 66 44 97
52 191 48 59 -2 91 -8 123 -25z"/>
<path d="M478 3183 c-56 -35 -66 -117 -19 -164 l29 -29 472 0 472 0 29 29 c48
49 34 142 -26 169 -19 9 -148 12 -478 12 -403 -1 -455 -2 -479 -17z"/>
<path d="M264 2541 c-44 -27 -60 -77 -41 -124 30 -70 -2 -67 635 -67 l574 0
29 29 c48 49 34 142 -26 169 -19 9 -172 12 -583 12 -532 0 -558 -1 -588 -19z"/>
<path d="M70 1913 c-81 -30 -90 -157 -14 -192 18 -8 224 -11 700 -11 l676 0
29 29 c48 49 34 142 -26 169 -19 9 -195 12 -688 11 -364 0 -669 -3 -677 -6z"/>
</g>
</svg>
