<?xml version="1.0" standalone="no"?>
<!DOCTYPE svg PUBLIC "-//W3C//DTD SVG 20010904//EN"
 "http://www.w3.org/TR/2001/REC-SVG-20010904/DTD/svg10.dtd">
<svg version="1.0" xmlns="http://www.w3.org/2000/svg"
 width="512.000000pt" height="512.000000pt" viewBox="0 0 512.000000 512.000000"
 preserveAspectRatio="xMidYMid meet">

<g transform="translate(0.000000,512.000000) scale(0.100000,-0.100000)"
fill="#000000" stroke="none">
<path d="M3147 3315 l6 -115 -71 0 -72 0 0 -130 0 -130 68 0 67 0 1 -333 c0
-233 4 -350 13 -392 29 -134 94 -218 194 -251 67 -22 250 -15 322 12 l50 20 3
137 3 138 -33 -17 c-18 -10 -65 -19 -105 -22 -69 -4 -73 -3 -102 25 -16 16
-34 47 -40 69 -7 24 -11 150 -11 327 l0 287 145 0 145 0 0 130 0 130 -146 0
-146 0 3 115 4 115 -152 0 -152 0 6 -115z"/>
<path d="M1716 3190 c-192 -68 -306 -227 -306 -424 0 -156 78 -311 188 -378
21 -12 38 -22 40 -23 1 -1 -13 -18 -32 -38 -79 -84 -68 -257 20 -326 15 -12
25 -22 23 -24 -2 -1 -32 -16 -67 -32 -70 -33 -141 -100 -168 -161 -12 -27 -18
-66 -18 -129 0 -112 24 -173 94 -239 96 -90 217 -128 410 -128 184 -1 288 28
387 108 107 87 157 328 94 452 -42 83 -114 126 -293 177 -199 58 -235 80 -245
153 -6 45 16 95 48 113 12 6 53 20 93 31 93 26 156 61 216 121 109 109 148
254 118 441 -2 15 8 22 50 34 l52 15 0 139 c0 115 -2 139 -14 135 -63 -24
-160 -48 -217 -53 -62 -6 -75 -4 -131 22 -55 25 -77 29 -173 31 -91 3 -120 0
-169 -17z m231 -241 c30 -15 52 -35 71 -67 24 -41 27 -57 27 -132 0 -99 -22
-147 -79 -174 -49 -23 -140 -21 -186 5 -53 30 -73 70 -78 159 -3 68 -1 80 25
129 21 41 39 60 72 78 55 29 92 29 148 2z m78 -1140 c21 -6 54 -26 72 -44 29
-29 33 -40 33 -85 0 -109 -65 -154 -220 -155 -154 0 -227 40 -237 129 -9 76
29 133 105 156 40 12 201 11 247 -1z"/>
<path d="M2570 2580 l0 -620 148 0 147 0 0 620 0 620 -147 0 -148 0 0 -620z"/>
</g>
</svg>
