<?xml version="1.0" standalone="no"?>
<!DOCTYPE svg PUBLIC "-//W3C//DTD SVG 20010904//EN"
 "http://www.w3.org/TR/2001/REC-SVG-20010904/DTD/svg10.dtd">
<svg version="1.0" xmlns="http://www.w3.org/2000/svg"
 width="512.000000pt" height="512.000000pt" viewBox="0 0 512.000000 512.000000"
 preserveAspectRatio="xMidYMid meet">

<g transform="translate(0.000000,512.000000) scale(0.100000,-0.100000)"
fill="#000000" stroke="none">
<path d="M653 5100 c-204 -53 -354 -202 -420 -415 -17 -57 -18 -149 -18 -2125
0 -1975 1 -2068 18 -2124 61 -199 207 -351 390 -408 l72 -23 1947 0 1947 0 28
21 c15 11 38 36 51 54 l22 33 0 2022 0 2022 -23 34 c-12 19 -42 44 -67 57 -40
20 -59 22 -187 22 l-142 0 -3 368 c-3 365 -3 367 -27 405 -12 21 -40 46 -62
57 -38 20 -66 20 -1746 19 -1637 0 -1711 -1 -1780 -19z m3297 -565 l0 -265
-1597 0 c-1070 0 -1610 4 -1635 10 -99 28 -183 142 -182 249 0 76 19 126 67
178 41 44 78 69 127 84 14 4 744 8 1623 8 l1597 1 0 -265z m-3335 -559 l50
-21 1853 -3 1852 -2 0 -1815 0 -1815 -1822 2 -1823 3 -40 22 c-52 28 -109 88
-132 138 -17 38 -18 130 -21 1784 -2 1662 -1 1743 15 1736 10 -4 41 -17 68
-29z"/>
<path d="M2605 3026 c-47 -20 -82 -70 -104 -144 -11 -37 -111 -384 -221 -772
-214 -749 -215 -752 -172 -809 69 -94 196 -95 263 -1 10 14 118 373 239 799
167 587 219 782 214 805 -22 104 -127 162 -219 122z"/>
<path d="M1762 2817 c-18 -6 -186 -140 -374 -296 -288 -241 -344 -292 -360
-329 -23 -51 -18 -107 15 -148 11 -15 171 -152 354 -305 230 -192 346 -282
373 -290 72 -22 150 13 185 82 23 43 19 110 -8 150 -12 19 -133 126 -269 239
-136 113 -247 208 -247 212 -1 3 113 102 253 218 168 139 260 223 270 245 23
49 20 115 -7 155 -41 61 -122 91 -185 67z"/>
<path d="M3046 2820 c-68 -21 -125 -113 -110 -177 15 -60 42 -88 288 -293 141
-117 253 -216 251 -221 -3 -4 -120 -103 -259 -219 -268 -223 -282 -238 -280
-316 2 -113 125 -187 224 -136 56 28 698 569 715 601 19 39 19 104 -1 146 -18
39 -661 579 -721 607 -42 19 -63 21 -107 8z"/>
</g>
</svg>
