<svg id="Capa_1" enable-background="new 0 0 512 512" height="512" viewBox="0 0 512 512" width="512" xmlns="http://www.w3.org/2000/svg" xmlns:xlink="http://www.w3.org/1999/xlink"><linearGradient id="SVGID_1_" gradientUnits="userSpaceOnUse" x1="256" x2="256" y1="421" y2="91"><stop offset="0" stop-color="#00b59c"/><stop offset="1" stop-color="#9cffac"/></linearGradient><g><g><g><path d="m467 121c-19.4 0-35.972 12.341-42.279 29.584-38.613-2.656-64.661-17.612-89.929-32.122-24.593-14.123-47.822-27.462-78.792-27.462s-54.199 13.339-78.792 27.462c-25.268 14.51-51.316 29.467-89.929 32.122-6.307-17.243-22.879-29.584-42.279-29.584-24.813 0-45 20.187-45 45v30c0 .007.001.015.001.022.002 1.977.421 4.053 1.226 5.916.004.009.006.017.01.026 12.147 28.026 37.614 72.119 66.246 108.338 25.077 31.724 51.75 57.084 79.278 75.378 35.265 23.437 72.019 35.32 109.239 35.32s73.974-11.883 109.239-35.32c27.528-18.294 54.201-43.655 79.278-75.378 28.07-35.508 53.735-79.471 66.246-108.338.038-.125 1.231-2.604 1.235-5.935 0-.01.001-.019.001-.029v-30c.001-24.813-20.186-45-44.999-45zm-407 126.515c-16.32-26.068-26.609-47.417-30-54.752v-26.763c0-8.271 6.729-15 15-15s15 6.729 15 15zm362 42.888c-41.349 52.716-98.744 100.597-166 100.597-67.266 0-124.667-47.901-166-100.597v-109.928c45.047-3.208 75.22-20.534 102.147-35.997 21.938-12.598 40.884-23.478 63.853-23.478s41.915 10.88 63.853 23.478c26.928 15.463 57.101 32.79 102.147 35.997zm60-97.64c-3.391 7.334-13.68 28.684-30 54.752v-81.515c0-8.271 6.729-15 15-15s15 6.729 15 15zm-196 48.237h-15v-15c0-8.284-6.716-15-15-15s-15 6.716-15 15v15h-15c-8.284 0-15 6.716-15 15s6.716 15 15 15h15v15c0 8.284 6.716 15 15 15s15-6.716 15-15v-15h15c8.284 0 15-6.716 15-15s-6.716-15-15-15z" fill="url(#SVGID_1_)"/></g></g></g></svg>