<?xml version="1.0" standalone="no"?>
<!DOCTYPE svg PUBLIC "-//W3C//DTD SVG 20010904//EN"
 "http://www.w3.org/TR/2001/REC-SVG-20010904/DTD/svg10.dtd">
<svg version="1.0" xmlns="http://www.w3.org/2000/svg"
 width="512.000000pt" height="512.000000pt" viewBox="0 0 512.000000 512.000000"
 preserveAspectRatio="xMidYMid meet">

<g transform="translate(0.000000,512.000000) scale(0.100000,-0.100000)"
fill="#000000" stroke="none">
<path d="M2007 5109 c-43 -25 -41 -47 33 -357 39 -164 73 -305 76 -314 4 -14
0 -18 -21 -18 -39 0 -62 -16 -74 -52 -6 -18 -69 -294 -141 -613 -72 -318 -132
-580 -133 -582 -2 -1 -64 271 -140 605 -115 510 -140 610 -158 625 -19 15 -50
17 -320 17 -286 0 -300 -1 -319 -20 -11 -11 -20 -32 -20 -47 0 -16 102 -480
226 -1033 181 -806 230 -1010 247 -1028 30 -32 83 -27 110 10 l20 27 -211 938
c-117 516 -215 953 -218 971 l-7 32 194 -2 193 -3 283 -1250 c155 -687 282
-1255 283 -1262 0 -9 -30 -11 -117 -7 -82 4 -140 1 -191 -9 -71 -14 -72 -14
-77 7 -3 12 -19 82 -35 156 -17 74 -37 144 -45 156 -28 43 -98 34 -122 -17
-10 -21 -6 -50 23 -179 19 -85 37 -163 40 -172 3 -12 -14 -29 -67 -63 -239
-155 -369 -392 -369 -675 0 -321 169 -587 463 -725 120 -57 184 -70 342 -69
131 0 146 2 235 33 121 41 213 96 300 177 l68 64 31 -42 c17 -24 59 -72 94
-107 453 -462 1238 -332 1522 254 75 153 90 223 90 415 0 142 -3 176 -23 244
-66 228 -203 418 -393 545 -47 32 -92 60 -99 63 -9 3 90 438 369 1611 209 883
381 1620 381 1636 0 20 -8 36 -26 50 -26 20 -38 21 -376 21 -349 0 -349 0
-371 -22 -18 -19 -56 -168 -211 -825 -105 -441 -191 -801 -193 -799 -3 3 -383
1594 -383 1603 0 1 -10 11 -22 23 -21 19 -33 20 -372 20 -227 -1 -357 -4 -369
-11z m642 -176 c48 -185 722 -3045 718 -3049 -3 -3 -42 0 -88 7 -94 13 -242 7
-334 -15 -33 -8 -61 -13 -63 -11 -2 1 -25 96 -53 211 -27 115 -54 221 -60 236
-23 58 -120 52 -135 -8 -5 -20 64 -352 102 -485 3 -10 -8 -21 -33 -33 -93 -44
-256 -187 -319 -279 l-25 -38 -69 64 c-37 36 -93 80 -124 98 -31 19 -56 40
-56 49 0 24 314 1410 320 1410 3 0 32 -113 64 -251 37 -155 67 -260 79 -275
26 -34 79 -33 106 2 12 15 21 33 21 41 0 13 -546 2323 -555 2351 -3 9 50 12
245 12 l249 0 10 -37z m1511 30 c1 -20 -675 -2853 -680 -2853 -4 0 -61 231
-128 512 l-121 513 217 917 217 918 248 0 c136 0 247 -3 247 -7z m-1905 -1114
l96 -406 -161 -714 c-88 -393 -164 -724 -168 -736 -5 -16 -37 111 -103 403
l-96 427 158 701 c176 779 170 755 175 741 1 -5 46 -193 99 -416z m1155 -2143
c53 -18 64 -26 62 -42 -14 -79 -14 -92 7 -113 38 -38 97 -23 129 35 9 16 15
14 66 -30 31 -26 72 -67 92 -91 l36 -44 -36 -34 c-22 -21 -36 -44 -36 -58 0
-60 63 -94 120 -64 l31 16 13 -33 c17 -40 42 -130 50 -180 7 -36 6 -36 -34
-43 -42 -7 -80 -43 -80 -75 0 -10 9 -29 21 -44 16 -20 29 -26 60 -26 l40 0 -7
-47 c-7 -51 -40 -166 -55 -196 -9 -16 -12 -16 -40 -1 -56 29 -119 -5 -119 -65
0 -14 14 -37 36 -58 l36 -34 -36 -44 c-20 -24 -61 -65 -92 -91 -51 -44 -57
-46 -66 -30 -32 58 -91 73 -129 35 -21 -21 -21 -34 -7 -113 2 -16 -9 -24 -62
-42 -36 -13 -92 -27 -123 -32 l-57 -9 0 34 c0 42 -38 83 -76 83 -41 0 -74 -36
-74 -80 l0 -37 -48 8 c-60 9 -125 26 -174 46 -37 15 -37 15 -23 43 21 40 19
70 -7 97 -34 36 -80 31 -115 -13 l-29 -36 -62 57 c-34 31 -76 75 -93 96 l-30
39 26 12 c60 27 65 98 9 134 -26 18 -29 18 -96 -11 -14 -5 -21 7 -43 77 -15
46 -29 104 -32 131 l-6 47 38 0 c50 0 75 23 75 70 0 45 -21 66 -74 75 l-38 8
5 41 c4 23 18 79 32 125 22 69 29 81 43 76 67 -29 70 -29 96 -11 55 36 52 102
-6 132 l-29 15 31 38 c16 21 58 65 92 96 l62 57 29 -36 c35 -43 77 -49 114
-14 27 25 29 57 8 98 -14 28 -14 28 24 43 56 23 154 47 190 47 28 0 31 -3 31
-32 0 -41 34 -78 72 -78 41 0 78 40 78 83 l0 34 57 -9 c31 -5 87 -19 123 -32z
m-1710 -188 c12 -10 33 -18 47 -18 31 0 73 42 73 73 0 24 1 24 50 15 85 -15
125 -33 122 -54 -12 -77 9 -114 65 -114 24 0 41 8 59 27 l25 27 70 -73 c53
-54 69 -76 63 -89 -23 -55 -56 -187 -65 -268 -8 -69 -8 -119 0 -188 9 -81 42
-213 65 -268 6 -13 -10 -35 -63 -89 l-70 -73 -25 27 c-18 19 -35 27 -59 27
-56 0 -77 -37 -65 -114 3 -21 -37 -39 -122 -54 -49 -9 -50 -9 -50 15 0 32 -42
73 -75 73 -33 0 -75 -41 -75 -73 0 -24 -2 -24 -47 -16 -27 5 -67 16 -89 24
-42 16 -42 16 -31 51 9 29 8 38 -10 62 -29 39 -83 42 -115 7 l-24 -25 -42 35
c-23 20 -51 49 -62 65 l-20 29 25 25 c31 31 32 65 3 101 -19 25 -26 27 -68 22
l-47 -6 -16 52 c-9 29 -19 69 -23 90 -6 36 -5 37 23 37 37 0 66 31 66 70 0 33
-27 70 -52 70 -39 1 -44 14 -28 76 25 95 36 119 49 106 22 -22 75 -14 97 14
28 36 26 69 -4 100 l-25 25 20 29 c11 16 39 45 62 65 l42 35 24 -25 c32 -35
86 -32 115 7 18 24 19 33 10 62 -11 35 -11 35 31 51 22 8 61 19 86 23 44 8 45
7 52 -22 3 -17 16 -39 28 -48z"/>
<path d="M3015 1415 c-14 -13 -25 -36 -25 -50 0 -14 11 -37 25 -50 21 -22 33
-25 90 -25 l65 0 0 -393 0 -394 23 -21 c29 -27 67 -28 98 -3 l24 19 0 452 0
452 -24 19 c-20 16 -40 19 -138 19 -108 0 -115 -1 -138 -25z"/>
<path d="M1660 1335 c-153 -49 -224 -265 -87 -265 38 0 61 20 78 68 28 81 146
75 164 -8 9 -39 -24 -99 -131 -245 -156 -214 -164 -226 -164 -261 0 -25 7 -38
27 -51 24 -16 52 -18 214 -18 170 0 189 2 208 19 26 24 29 87 5 107 -11 9 -55
16 -125 19 l-108 5 86 120 c110 154 137 211 137 290 0 157 -154 268 -304 220z"/>
</g>
</svg>
