<?xml version="1.0" standalone="no"?>
<!DOCTYPE svg PUBLIC "-//W3C//DTD SVG 20010904//EN"
 "http://www.w3.org/TR/2001/REC-SVG-20010904/DTD/svg10.dtd">
<svg version="1.0" xmlns="http://www.w3.org/2000/svg"
 width="512.000000pt" height="512.000000pt" viewBox="0 0 512.000000 512.000000"
 preserveAspectRatio="xMidYMid meet">

<g transform="translate(0.000000,512.000000) scale(0.100000,-0.100000)"
fill="#000000" stroke="none">
<path d="M2155 5074 c-1304 -768 -1845 -1091 -1868 -1115 l-27 -29 0 -1155 0
-1154 23 -25 c12 -13 454 -279 982 -591 719 -425 968 -567 991 -567 23 0 100
40 275 145 134 79 253 149 265 155 20 10 23 5 58 -83 191 -481 717 -748 1222
-620 177 45 324 127 461 258 328 314 414 798 214 1203 -102 205 -241 349 -453
468 l-48 27 0 973 c0 913 -1 975 -17 994 -27 30 -1933 1153 -1968 1158 -23 4
-49 -6 -110 -42z m324 -272 c117 -70 213 -132 212 -137 -1 -6 -149 -97 -329
-203 -180 -106 -335 -202 -344 -213 -41 -49 -4 -139 57 -139 34 0 32 -1 443
242 234 139 359 207 370 203 30 -11 432 -250 432 -256 0 -4 -389 -237 -865
-518 l-864 -510 -208 123 c-114 67 -216 127 -226 133 -16 8 42 46 353 229 393
232 408 243 395 305 -7 32 -48 69 -77 69 -27 0 -37 -6 -471 -262 l-388 -229
-226 133 c-157 92 -221 135 -212 141 137 84 1717 1015 1724 1016 6 0 106 -57
224 -127z m1317 -779 l284 -168 0 -904 0 -903 -22 5 c-137 35 -356 33 -498 -3
-284 -73 -539 -277 -668 -535 -76 -153 -103 -261 -111 -448 l-6 -139 -210
-124 c-115 -68 -213 -124 -217 -124 -5 0 -8 70 -8 155 0 156 0 156 -26 180
-29 27 -78 33 -105 12 -33 -25 -39 -55 -39 -201 0 -80 -3 -146 -7 -146 -5 0
-395 229 -868 509 l-860 509 -3 1026 c-1 564 0 1026 3 1026 2 0 103 -58 222
-129 l218 -129 5 -386 c5 -369 6 -386 25 -405 18 -18 564 -345 643 -385 28
-14 39 -15 69 -5 60 20 63 37 63 389 0 170 3 310 6 310 3 0 113 -64 245 -141
l239 -141 0 -728 0 -727 25 -27 c32 -35 86 -36 120 -1 l25 24 0 729 0 728 785
464 c432 255 794 472 805 482 64 59 -2 171 -82 140 -16 -6 -380 -218 -809
-472 -429 -254 -784 -460 -788 -458 -23 9 -481 284 -481 288 0 9 1714 1020
1729 1020 7 0 141 -75 297 -167z m-2458 -803 l162 -95 0 -287 c0 -159 -2 -288
-5 -288 -3 0 -102 57 -220 127 l-215 126 0 289 0 289 58 -33 c32 -18 131 -76
220 -128z m2697 -1339 c538 -142 807 -743 552 -1236 -249 -480 -870 -618
-1298 -289 -413 317 -452 931 -81 1298 130 129 268 202 458 241 94 20 265 13
369 -14z"/>
<path d="M673 2252 c-13 -2 -32 -15 -43 -29 -19 -24 -20 -40 -20 -230 0 -203
0 -204 25 -228 34 -35 88 -34 120 1 25 27 25 28 25 229 0 186 -2 204 -20 227
-20 26 -48 36 -87 30z"/>
<path d="M983 2056 l-28 -24 -3 -180 c-4 -218 3 -257 55 -278 29 -13 41 -13
65 -3 54 22 60 49 56 264 -3 189 -4 194 -27 219 -32 34 -80 35 -118 2z"/>
<path d="M3739 1728 c-313 -29 -572 -288 -608 -607 -37 -334 158 -634 484
-743 59 -19 91 -23 200 -23 116 0 139 3 218 29 534 175 647 883 193 1217 -47
35 -86 37 -122 5 -21 -18 -28 -32 -28 -60 0 -32 9 -45 81 -114 132 -125 175
-223 175 -392 1 -121 -21 -195 -86 -293 -138 -208 -426 -283 -656 -170 -308
150 -386 561 -154 812 88 95 192 151 311 166 99 12 114 16 133 37 28 30 27 88
-2 115 -31 27 -49 30 -139 21z"/>
<path d="M3869 1123 l-178 -176 -50 46 c-56 53 -92 60 -134 27 -59 -46 -40
-106 64 -205 70 -66 101 -82 142 -71 12 3 118 101 235 219 200 201 212 215
212 251 0 46 -38 86 -83 86 -26 0 -56 -25 -208 -177z"/>
</g>
</svg>
