<?xml version="1.0" standalone="no"?>
<!DOCTYPE svg PUBLIC "-//W3C//DTD SVG 20010904//EN"
 "http://www.w3.org/TR/2001/REC-SVG-20010904/DTD/svg10.dtd">
<svg version="1.0" xmlns="http://www.w3.org/2000/svg"
 width="512.000000pt" height="512.000000pt" viewBox="0 0 512.000000 512.000000"
 preserveAspectRatio="xMidYMid meet">

<g transform="translate(0.000000,512.000000) scale(0.100000,-0.100000)"
fill="#000000" stroke="none">
<path d="M4900 5099 c-19 -11 -193 -179 -387 -371 l-351 -351 -54 16 c-85 26
-146 30 -224 14 -117 -25 -165 -56 -315 -204 l-136 -133 -84 19 c-118 28 -227
36 -275 21 -32 -10 -224 -197 -1059 -1031 l-1020 -1019 -60 61 c-88 90 -144
108 -215 70 -69 -36 -102 -129 -69 -194 6 -12 87 -99 180 -192 l169 -170 -213
-213 -212 -212 -165 166 c-91 91 -177 172 -192 180 -84 44 -197 -10 -214 -103
-15 -79 -26 -67 683 -775 585 -584 673 -667 705 -673 98 -18 178 47 178 145 0
23 -6 53 -14 68 -8 15 -89 101 -180 192 l-166 165 212 212 213 213 170 -169
c93 -93 180 -174 192 -180 65 -33 158 0 194 69 38 71 20 127 -70 215 l-61 60
1019 1020 c834 835 1021 1027 1031 1059 15 48 7 157 -21 275 l-19 84 135 138
c153 156 190 216 208 344 9 64 8 84 -11 161 l-22 89 354 355 c195 195 361 369
370 387 34 68 6 153 -64 192 -48 27 -95 27 -140 0z m-877 -993 c43 -17 85 -68
93 -111 11 -58 -13 -103 -105 -198 l-86 -88 -49 59 c-27 32 -75 81 -108 108
l-58 48 77 78 c110 110 164 134 236 104z m-663 -331 c180 -64 351 -235 415
-415 9 -25 22 -75 29 -112 l13 -66 -83 -83 -84 -83 -62 61 c-75 73 -94 83
-150 83 -110 0 -182 -116 -132 -213 9 -17 42 -58 72 -89 l56 -59 -39 -39 -39
-40 -635 0 -636 0 549 549 548 548 67 -13 c36 -7 86 -20 111 -29z m-910 -1960
l-605 -605 -317 317 -318 318 287 287 288 288 635 0 635 0 -605 -605z m-1130
-500 l105 -105 -213 -213 -212 -212 -107 108 -108 107 210 210 c115 115 212
210 215 210 3 0 52 -47 110 -105z"/>
<path d="M1929 2110 c-126 -38 -149 -202 -37 -270 64 -39 160 -17 197 44 50
80 25 172 -59 214 -47 23 -60 25 -101 12z"/>
</g>
</svg>
