<svg id="Capa_1" enable-background="new 0 0 512 512" height="512" viewBox="0 0 512 512" width="512" xmlns="http://www.w3.org/2000/svg"><g><path d="m481.311 272.899c-18.892-17.194-48.25-15.815-65.445 3.078-2.089 2.295-3.922 4.76-5.488 7.361l-86.343-14.996c-.633-13.086-3.988-25.469-9.505-36.598l46.258-46.258c6.488 3.463 13.888 5.434 21.742 5.434 25.545 0 46.328-20.783 46.328-46.327 0-25.545-20.783-46.328-46.328-46.328s-46.328 20.782-46.328 46.328c0 6.579 1.387 12.837 3.87 18.51l-43.638 43.638c-13.365-13.185-30.691-22.36-50.011-25.559v-91.114c18.08-6.317 31.09-23.533 31.09-43.74.001-25.546-20.782-46.328-46.327-46.328s-46.328 20.782-46.328 46.327c0 20.207 13.01 37.423 31.09 43.74v91.113c-18.798 3.113-35.711 11.879-48.922 24.496l-61.682-50.967c5.67-15.12 2.861-32.774-7.433-45.275-7.786-9.619-18.85-15.63-31.157-16.927-25.398-2.679-48.249 15.813-50.926 41.217-1.298 12.306 2.276 24.382 10.06 34.001 13.897 17.82 40.936 22.512 60.034 10.47l62.773 51.867c-6.684 12.824-10.47 27.389-10.47 42.823 0 10.727 1.832 21.032 5.19 30.627l-38.407 18.038c-8.475-9.24-20.638-15.044-34.135-15.044-25.545 0-46.328 20.782-46.328 46.328 0 25.545 20.782 46.327 46.328 46.327 25.544 0 46.327-20.783 46.327-46.327 0-1.104-.053-2.195-.129-3.279l41.036-19.273c8.06 10.24 18.225 18.746 29.833 24.873l-17.429 64.427c-23.342 2.366-41.621 22.133-41.621 46.09 0 25.545 20.783 46.328 46.327 46.328 25.545 0 46.328-20.783 46.328-46.328 0-16.363-8.535-30.761-21.379-39.005l16.75-61.914c4.653.72 9.419 1.095 14.27 1.095 15.367 0 29.873-3.751 42.656-10.381l22.702 34.249c-5.936 7.788-9.47 17.499-9.47 28.024 0 25.545 20.783 46.327 46.327 46.327 25.545 0 46.328-20.783 46.328-46.327s-20.783-46.327-46.328-46.327c-3.958 0-7.802.501-11.472 1.44l-23.653-35.683c10.27-10.714 18.004-23.874 22.233-38.508l83.693 14.536c1.409 10.859 6.551 20.771 14.741 28.225 8.864 8.067 20.029 12.045 31.163 12.045 12.597 0 25.154-5.095 34.281-15.123 17.196-18.894 15.815-48.252-3.076-65.446zm-410.438 95.787c-8.741 0-15.852-7.111-15.852-15.852s7.111-15.852 15.852-15.852c8.74 0 15.851 7.111 15.851 15.852s-7.111 15.852-15.851 15.852zm104.344 112.838c-8.74 0-15.851-7.111-15.851-15.852 0-8.74 7.111-15.852 15.851-15.852 8.741 0 15.852 7.111 15.852 15.852s-7.111 15.852-15.852 15.852zm207.313-352.784c8.741 0 15.852 7.111 15.852 15.852 0 8.74-7.111 15.852-15.852 15.852s-15.852-7.111-15.852-15.852 7.111-15.852 15.852-15.852zm-151.344-98.264c8.741 0 15.852 7.111 15.852 15.852s-7.111 15.852-15.852 15.852-15.852-7.111-15.852-15.852 7.111-15.852 15.852-15.852zm-170.949 123.868c-8.491-.718-15.171-8.97-14.103-17.425.881-8.721 8.878-15.052 17.425-14.103 8.492.718 15.172 8.969 14.104 17.425-.721 8.493-8.964 15.17-17.426 14.103zm164.712 180.716 5.145-19.016c2.197-8.124-2.606-16.491-10.73-18.689-8.12-2.199-16.49 2.607-18.688 10.73l-4.477 16.548c-16.581-11.247-27.498-30.245-27.498-51.746 0-8.021 1.536-15.686 4.302-22.738l10.356 8.557c2.841 2.348 6.28 3.492 9.697 3.492 4.388 0 8.743-1.886 11.756-5.533 5.36-6.488 4.446-16.092-2.041-21.453l-12.006-9.92c10.905-9.276 25.016-14.891 40.421-14.891 31.065 0 56.9 22.79 61.684 52.528l-20.803-3.613c-8.288-1.441-16.18 4.115-17.62 12.406-1.44 8.292 4.114 16.181 12.406 17.621l23.345 4.055c-8.508 24.408-31.74 41.976-59.012 41.976-2.105-.001-4.185-.109-6.237-.314zm124.304 82.68c0 8.74-7.111 15.852-15.852 15.852-8.74 0-15.851-7.111-15.851-15.852s7.111-15.852 15.851-15.852c8.741 0 15.852 7.111 15.852 15.852zm112.598-99.91c-9.338 10.394-27.018 4.031-27.558-9.925-.652-8.816 7.208-16.837 15.841-16.589 13.567-.098 20.98 16.406 11.717 26.514z"/></g></svg>